<svg xmlns="http://www.w3.org/2000/svg" viewBox="0 0 32 32" width="32" height="32">
  <defs>
    <linearGradient id="g" x1="0" y1="0" x2="32" y2="32" gradientUnits="userSpaceOnUse">
      <stop offset="0" stop-color="#e11d48"/>
      <stop offset="0.55" stop-color="#f43f5e"/>
      <stop offset="1" stop-color="#f97316"/>
    </linearGradient>
  </defs>
  <rect width="32" height="32" rx="7" fill="url(#g)"/>
  <g transform="translate(3.4 3.4) scale(0.78)" fill="none" stroke="#fff" stroke-width="2.4" stroke-linejoin="round">
    <path d="M16 9.4C13 7.5 8.3 7.5 5.6 8.8V24.4c2.7-1.3 7.4-1.3 10.4.6 3-1.9 7.7-1.9 10.4-.6V8.8C24.7 7.5 19 7.5 16 9.4Z"/>
    <path d="M16 9.4V25"/>
  </g>
  <path transform="translate(3.4 3.4) scale(0.78)" d="M25.4 2.6l.92 2.48L28.8 6l-2.48.92-.92 2.48-.92-2.48L22 6l2.48-.92z" fill="#fff"/>
</svg>
